<svg width="250" height="250" viewBox="0 0 250 250" fill="none" xmlns="http://www.w3.org/2000/svg">
    <polygon
            points="100,0 150,0 150,50 200,50 200,100 250,100 250,150 200,150 200,200 150,200 150,250 100,250 100,200 50,200 50,150 0,150 0,100 50,100 50,50 100,50"
            fill="#7ED6DF"/>
    <!-- Horizontal lines -->
    <line x1="75" y1="75" x2="175" y2="75" stroke="#95AFC0"/>
    <line x1="25" y1="125" x2="225" y2="125" stroke="#95AFC0"/>
    <line x1="75" y1="175" x2="175" y2="175" stroke="#95AFC0"/>

    <!-- Vertical lines -->
    <line x1="75" y1="75" x2="75" y2="175" stroke="#95AFC0"/>
    <line x1="125" y1="25" x2="125" y2="225" stroke="#95AFC0"/>
    <line x1="175" y1="75" x2="175" y2="175" stroke="#95AFC0"/>

    <!-- Diagonal lines -->
    <line x1="75" y1="75" x2="175" y2="175" stroke="#95AFC0"/>
    <line x1="175" y1="75" x2="75" y2="175" stroke="#95AFC0"/>
    <line x1="75" y1="125" x2="125" y2="175" stroke="#95AFC0"/>
    <line x1="125" y1="75" x2="175" y2="125" stroke="#95AFC0"/>
    <line x1="125" y1="75" x2="75" y2="125" stroke="#95AFC0"/>
    <line x1="175" y1="125" x2="125" y2="175" stroke="#95AFC0"/>

    <line x1="125" y1="25" x2="25" y2="125" stroke="#95AFC0"/>
    <line x1="125" y1="25" x2="225" y2="125" stroke="#95AFC0"/>
    <line x1="225" y1="125" x2="125" y2="225" stroke="#95AFC0"/>
    <line x1="25" y1="125" x2="125" y2="225" stroke="#95AFC0"/>
</svg>